<?xml version="1.0" encoding="UTF-8" standalone="no"?>
<!DOCTYPE svg PUBLIC "-//W3C//DTD SVG 1.1//EN" "http://www.w3.org/Graphics/SVG/1.1/DTD/svg11.dtd">
<svg width="100%" height="100%" viewBox="0 0 800 129" version="1.1" xmlns="http://www.w3.org/2000/svg" xmlns:xlink="http://www.w3.org/1999/xlink" xml:space="preserve" xmlns:serif="http://www.serif.com/" style="fill-rule:evenodd;clip-rule:evenodd;stroke-linejoin:round;stroke-miterlimit:2;">
    <g id="Artboard1" transform="matrix(0.976814,0,0,0.464525,-9.70553,-64.2398)">
        <rect x="9.936" y="138.291" width="818.984" height="275.625" style="fill:none;"/>
        <g transform="matrix(1.02374,0,0,2.15274,-20.3153,-304.951)">
            <g>
                <path d="M137.225,209.982L119.02,209.982L119.02,259.464L69.13,259.464L69.13,209.982L44,209.982L44,228.861L50.924,228.861L50.924,328.107L69.13,328.107L69.13,276.014L119.02,276.014L119.02,328.107L143.655,328.107L143.655,309.248L137.226,309.248L137.226,209.982L137.225,209.982ZM140.821,312.073L140.821,325.283L121.871,325.283L121.871,273.189L66.297,273.189L66.297,325.283L53.776,325.283L53.776,226.028L46.833,226.028L46.833,212.807L66.296,212.807L66.296,262.298L121.87,262.298L121.87,212.807L134.391,212.807L134.391,312.073L140.821,312.073Z" style="fill:rgb(26,35,105);fill-rule:nonzero;"/>
                <path d="M663.301,285.852C662.028,285.799 660.54,285.781 658.769,285.781C657.316,285.781 655.014,285.852 651.915,286.021C648.762,286.197 645.503,286.827 642.245,287.854C638.934,288.934 635.975,290.687 633.478,293.061C630.839,295.548 629.511,299.064 629.511,303.526C629.511,304.979 629.741,306.52 630.254,308.239C630.767,309.983 631.671,311.701 632.982,313.33C634.274,314.896 636.062,316.233 638.311,317.306C640.58,318.351 643.395,318.865 646.92,318.865C654.765,318.865 660.716,315.729 664.612,309.513C665.515,307.964 666.187,306.582 666.666,305.298C667.108,304.05 667.444,302.579 667.711,300.666C667.941,299.028 668.083,297.161 668.19,295.036C668.277,293.193 668.367,291.069 668.473,288.668L668.543,286.463L667.303,286.277C665.924,286.065 664.577,285.933 663.301,285.852ZM665.355,294.884L665.355,294.894C665.249,296.929 665.126,298.728 664.914,300.269C664.666,301.979 664.384,303.279 663.993,304.333C663.586,305.449 662.982,306.68 662.186,308.061C658.839,313.428 653.845,316.032 646.92,316.032C643.802,316.032 641.376,315.605 639.516,314.738C637.658,313.861 636.205,312.782 635.178,311.55C634.115,310.222 633.371,308.841 632.982,307.442C632.556,306.006 632.344,304.687 632.344,303.527C632.344,299.827 633.354,297.081 635.426,295.115C637.657,292.998 640.172,291.503 643.112,290.546C646.14,289.581 649.151,289.014 652.074,288.846C655.102,288.687 657.351,288.606 658.768,288.606C660.468,288.606 661.938,288.634 663.159,288.687C663.939,288.721 664.771,288.802 665.623,288.909C665.534,291.147 665.463,293.149 665.355,294.884Z" style="fill:rgb(26,35,105);fill-rule:nonzero;"/>
                <path d="M682.252,314.039C682.182,312.106 682.128,310.451 682.056,309.106L682.04,308.495C682.021,307.476 682.004,306.84 682.004,306.592L682.624,268.204C682.624,266.309 682.5,264.343 682.234,262.351C681.951,260.226 681.135,257.852 679.843,255.284C678.744,253.106 677.133,251.166 675.008,249.502C672.865,247.899 670.598,246.641 668.046,245.658C665.586,244.684 662.823,243.941 659.866,243.427C654.836,242.586 649.824,242.488 644.545,243.099C642.137,243.374 639.783,243.843 637.567,244.507C635.266,245.19 633.017,246.11 630.891,247.253C628.661,248.475 626.765,250.007 625.259,251.822C622.85,254.77 621.328,257.693 620.742,260.473C620.193,263.05 619.785,265.494 619.574,267.734L619.414,269.301L636.824,269.301L636.824,267.884C636.824,267.255 636.947,266.184 637.214,264.687C637.407,263.368 637.975,262.022 638.878,260.72C639.798,259.392 641.145,258.259 643.004,257.232C644.847,256.24 647.502,255.744 650.938,255.744C652.834,255.744 655.12,256.098 657.704,256.79C660.131,257.462 661.901,258.64 663.229,260.49C663.833,261.234 664.275,262.013 664.558,262.935C664.912,263.945 665.161,265.034 665.266,266.228C665.444,267.503 665.533,269.008 665.567,270.895C665.637,272.339 665.655,273.959 665.674,275.766C664.062,275.623 662.715,275.536 661.6,275.492C658.854,275.421 655.703,275.332 650.956,275.597C648.848,275.677 646.581,275.898 643.801,276.297C641.375,276.66 638.913,277.2 636.222,277.935C633.442,278.741 631.121,279.715 629.12,280.893C626.179,282.637 623.736,284.648 621.841,286.879C619.982,289.146 618.582,291.288 617.591,293.424C616.545,295.707 615.837,297.833 615.447,299.941C615.111,302.022 614.934,303.925 614.934,305.608C614.934,309.123 615.571,312.425 616.811,315.401C618.069,318.474 619.947,321.183 622.372,323.442C624.816,325.682 627.844,327.471 631.386,328.746C634.893,330.021 638.966,330.659 643.52,330.659C645.397,330.659 647.291,330.515 649.168,330.26C651.312,329.986 653.488,329.331 655.844,328.241C658.111,327.169 660.378,325.602 662.556,323.602C663.832,322.458 665.018,321.094 666.152,319.483C666.187,319.98 666.223,320.474 666.294,320.953C666.488,322.867 666.86,324.912 667.357,327.027L667.604,328.107L687.228,328.107L687.228,317.552L682.393,317.552C682.322,316.322 682.286,315.127 682.252,314.039ZM684.394,325.283L669.873,325.283C669.519,323.673 669.271,322.114 669.111,320.643C668.898,318.811 668.792,316.827 668.792,314.729L666.136,314.073C664.454,317.242 662.611,319.739 660.662,321.503C658.68,323.327 656.661,324.727 654.641,325.673C652.569,326.639 650.675,327.224 648.797,327.462C642.74,328.312 636.859,327.718 632.344,326.09C629.174,324.939 626.465,323.345 624.304,321.361C622.143,319.36 620.55,317.057 619.415,314.312C618.301,311.638 617.769,308.795 617.769,305.608C617.769,304.075 617.928,302.331 618.247,300.427C618.584,298.576 619.204,296.672 620.16,294.619C621.045,292.705 622.321,290.767 624.021,288.686C625.686,286.72 627.899,284.913 630.574,283.338C632.362,282.275 634.488,281.398 636.985,280.663C639.553,279.963 641.925,279.44 644.227,279.104C646.902,278.715 649.08,278.502 651.081,278.414C653.26,278.29 655.084,278.254 656.625,278.254C658.433,278.254 660.061,278.271 661.496,278.307C662.895,278.378 664.7,278.511 666.951,278.733L668.509,278.874L668.509,277.316C668.509,274.837 668.491,272.667 668.403,270.799C668.35,268.851 668.262,267.239 668.085,265.91C667.943,264.538 667.677,263.219 667.253,262.049C666.88,260.8 666.261,259.703 665.464,258.773C663.851,256.489 661.497,254.904 658.469,254.063C655.616,253.301 653.085,252.912 650.941,252.912C647.045,252.912 643.928,253.523 641.661,254.754C639.396,255.994 637.731,257.419 636.544,259.11C635.411,260.775 634.685,262.51 634.42,264.237C634.261,265.114 634.171,265.84 634.101,266.469L622.572,266.469C622.784,264.768 623.102,262.953 623.51,261.067C624.005,258.72 625.333,256.214 627.459,253.629C628.734,252.08 630.31,250.804 632.258,249.742C634.189,248.697 636.243,247.846 638.368,247.218C640.44,246.607 642.637,246.173 644.867,245.917C649.88,245.333 654.626,245.421 659.39,246.218C662.169,246.697 664.738,247.396 667.024,248.299C669.325,249.185 671.38,250.327 673.274,251.753C675.045,253.134 676.409,254.755 677.33,256.57C678.465,258.846 679.189,260.917 679.437,262.724C679.667,264.583 679.792,266.434 679.792,268.179L679.17,306.574C679.17,306.849 679.189,307.513 679.206,308.55L679.225,309.205C679.296,310.595 679.348,312.225 679.418,314.12C679.455,315.626 679.544,317.344 679.648,319.052L679.718,320.38L684.394,320.38L684.394,325.283Z" style="fill:rgb(26,35,105);fill-rule:nonzero;"/>
                <path d="M243.026,285.852C241.768,285.799 240.262,285.781 238.492,285.781C237.04,285.781 234.755,285.852 231.656,286.021C228.468,286.197 225.297,286.801 221.968,287.854C218.621,288.95 215.663,290.705 213.237,293.061C210.598,295.566 209.254,299.082 209.254,303.526C209.254,304.918 209.484,306.45 209.979,308.239C210.528,310.035 211.433,311.745 212.707,313.338C214.017,314.906 215.824,316.234 218.057,317.306C220.306,318.351 223.104,318.865 226.645,318.865C234.526,318.865 240.46,315.729 244.32,309.54C245.17,308.114 245.861,306.697 246.375,305.299C246.852,303.945 247.207,302.429 247.437,300.659C247.667,299.029 247.809,297.162 247.897,295.045C248.022,292.963 248.128,290.539 248.234,287.731L248.287,286.465L247.029,286.279C245.646,286.065 244.3,285.933 243.026,285.852ZM245.08,294.884L245.061,294.894C244.99,296.939 244.831,298.736 244.637,300.295C244.425,301.854 244.124,303.181 243.716,304.333C243.272,305.546 242.652,306.804 241.891,308.061C238.562,313.428 233.567,316.032 226.642,316.032C223.579,316.032 221.082,315.597 219.257,314.738C217.398,313.861 215.928,312.772 214.901,311.55C213.855,310.247 213.112,308.866 212.686,307.477C212.28,305.936 212.084,304.662 212.084,303.527C212.084,299.897 213.112,297.063 215.183,295.115C217.327,293.043 219.895,291.511 222.834,290.546C225.917,289.573 228.856,289.014 231.813,288.846C234.842,288.687 237.073,288.606 238.49,288.606C240.208,288.606 241.678,288.634 242.881,288.687C243.66,288.721 244.494,288.802 245.361,288.909C245.256,291.157 245.168,293.149 245.08,294.884Z" style="fill:rgb(26,35,105);fill-rule:nonzero;"/>
                <path d="M261.975,314.029L261.886,311.674C261.87,310.718 261.834,309.85 261.798,309.079C261.763,307.724 261.745,306.892 261.745,306.592L262.347,268.204C262.347,266.362 262.224,264.45 261.957,262.342C261.656,260.19 260.861,257.808 259.585,255.284C258.451,253.054 256.821,251.105 254.713,249.511C252.608,247.908 250.34,246.641 247.789,245.658C245.257,244.667 242.566,243.941 239.572,243.427C234.525,242.586 229.442,242.507 224.287,243.099C221.879,243.374 219.541,243.843 217.31,244.507C214.92,245.197 212.687,246.128 210.652,247.253C208.385,248.483 206.542,249.981 205.002,251.822C202.593,254.744 201.071,257.657 200.469,260.473C199.884,263.227 199.494,265.609 199.299,267.752L199.141,269.301L216.568,269.301L216.568,267.884C216.568,267.264 216.692,266.219 216.94,264.705C217.17,263.342 217.737,262.004 218.622,260.72C219.508,259.436 220.907,258.259 222.73,257.232C224.573,256.24 227.246,255.744 230.664,255.744C232.578,255.744 234.862,256.098 237.43,256.79C239.855,257.462 241.644,258.64 242.956,260.49C243.576,261.234 244.018,262.023 244.301,262.917C244.638,263.865 244.868,264.98 245.028,266.203C245.17,267.504 245.258,269.063 245.311,270.887C245.365,272.34 245.399,273.96 245.399,275.767C243.788,275.624 242.423,275.537 241.291,275.493C238.616,275.412 235.483,275.333 230.665,275.598C228.575,275.678 226.237,275.917 223.528,276.298C221.138,276.661 218.604,277.21 215.965,277.936C213.185,278.742 210.866,279.716 208.865,280.894C205.924,282.638 203.481,284.639 201.585,286.872C199.744,289.085 198.345,291.218 197.299,293.425C196.271,295.664 195.581,297.79 195.191,299.942C194.856,302.005 194.66,303.909 194.66,305.609C194.66,309.097 195.298,312.382 196.52,315.402C197.777,318.466 199.673,321.175 202.116,323.443C204.561,325.692 207.589,327.489 211.114,328.747C214.621,330.022 218.711,330.66 223.298,330.66C225.123,330.66 227.017,330.516 228.931,330.261C231.038,329.987 233.269,329.314 235.555,328.242C237.822,327.188 240.087,325.621 242.302,323.603C243.542,322.468 244.747,321.095 245.879,319.494C245.915,319.981 245.968,320.475 246.003,320.954C246.217,322.831 246.57,324.816 247.101,327.028L247.367,328.108L266.972,328.145L266.972,317.58L262.119,317.58C262.045,316.348 261.975,315.145 261.975,314.029ZM264.135,325.31L249.595,325.284C249.223,323.621 248.975,322.097 248.815,320.664C248.621,318.768 248.532,316.768 248.532,314.73L245.857,314.074C244.21,317.209 242.369,319.715 240.402,321.504C238.402,323.336 236.364,324.745 234.346,325.674C232.345,326.621 230.379,327.225 228.556,327.463C222.267,328.33 216.548,327.711 212.084,326.091C208.915,324.948 206.205,323.362 204.026,321.362C201.848,319.351 200.253,317.058 199.138,314.322C198.04,311.657 197.491,308.718 197.491,305.609C197.491,304.068 197.651,302.324 197.986,300.428C198.323,298.532 198.943,296.621 199.863,294.62C200.801,292.654 202.059,290.705 203.741,288.687C205.425,286.702 207.621,284.914 210.312,283.339C212.101,282.276 214.208,281.399 216.74,280.664C219.237,279.964 221.664,279.441 223.931,279.105C226.535,278.734 228.784,278.503 230.803,278.415C232.981,278.291 234.805,278.255 236.345,278.255C238.169,278.255 239.799,278.272 241.179,278.308C242.596,278.379 244.438,278.512 246.688,278.734L248.229,278.875L248.229,277.317C248.229,274.838 248.211,272.668 248.14,270.8C248.104,268.904 247.981,267.275 247.839,265.876C247.661,264.442 247.379,263.139 246.989,262.033C246.599,260.802 245.98,259.704 245.2,258.774C243.587,256.49 241.215,254.905 238.168,254.064C235.317,253.293 232.855,252.913 230.659,252.913C226.71,252.913 223.681,253.516 221.362,254.755C219.112,256.012 217.447,257.447 216.279,259.103C215.164,260.741 214.438,262.468 214.137,264.248C213.995,265.133 213.888,265.868 213.818,266.471L202.289,266.471C202.501,264.842 202.82,263.026 203.228,261.069C203.741,258.696 205.069,256.19 207.177,253.639C208.488,252.081 210.064,250.806 212.012,249.734C213.871,248.698 215.927,247.866 218.105,247.219C220.176,246.608 222.355,246.174 224.622,245.918C229.51,245.343 234.292,245.414 239.109,246.219C241.907,246.698 244.404,247.388 246.76,248.3C249.061,249.195 251.116,250.328 252.994,251.771C254.783,253.117 256.11,254.693 257.066,256.562C258.183,258.812 258.891,260.892 259.156,262.716C259.404,264.682 259.511,266.479 259.511,268.18L258.891,306.575C258.891,306.903 258.91,307.78 258.962,309.196C258.997,309.967 259.033,310.826 259.069,311.756L259.14,314.086C259.157,315.6 259.263,317.309 259.37,319.026L260.786,318.999L259.387,319.089L259.458,320.407L264.134,320.407L264.134,325.31L264.135,325.31Z" style="fill:rgb(26,35,105);fill-rule:nonzero;"/>
                <path d="M439.43,245.102L417.15,245.102L417.15,255.666L422.162,255.666L422.162,328.108L443.344,328.108L443.344,317.553L439.43,317.553L439.43,245.102ZM440.51,320.378L440.51,325.283L424.995,325.283L424.995,252.832L419.984,252.832L419.984,247.926L436.596,247.926L436.596,320.378L440.51,320.378Z" style="fill:rgb(26,35,105);fill-rule:nonzero;"/>
                <path d="M815.095,281.443C815.095,278.352 814.812,275.032 814.245,271.569C813.678,268.177 812.686,264.742 811.287,261.368C809.922,257.986 807.922,254.878 805.354,252.151C802.715,249.37 799.404,247.192 795.241,245.509C791.134,243.836 786.068,242.985 780.171,242.985C779.021,242.985 777.603,243.065 775.92,243.171C774.273,243.278 772.521,243.544 770.412,243.995C768.5,244.429 766.48,245.04 764.408,245.828C762.265,246.617 760.211,247.741 758.281,249.184C752.011,253.717 747.779,259.42 745.653,266.115C743.581,272.676 742.519,280.052 742.519,288.022C742.519,300.969 745.564,311.372 751.586,318.961C757.696,326.649 767.171,330.545 779.726,330.545C783.607,330.545 787.148,330.146 790.301,329.365C793.434,328.552 796.021,327.613 798.163,326.522C800.358,325.46 802.272,324.211 803.865,322.83C804.077,322.637 804.291,322.45 804.484,322.273L804.484,325.513L814.314,325.513L814.314,300.223L797.206,300.223L797.065,301.481C796.48,306.892 794.691,310.717 791.592,313.161C788.511,315.597 784.72,316.837 780.363,316.837C776.643,316.837 773.403,316.154 770.747,314.817C768.143,313.505 766.001,311.611 764.371,309.176C762.688,306.75 761.43,303.826 760.669,300.48C759.979,297.532 759.625,294.246 759.589,290.687L815.093,290.687L815.093,281.443L815.095,281.443ZM812.26,287.862L756.793,287.862L756.758,289.243C756.705,293.574 757.076,297.567 757.91,301.118C758.76,304.82 760.158,308.078 762.035,310.779C763.931,313.594 766.428,315.808 769.473,317.349C772.521,318.881 776.204,319.668 780.366,319.668C785.378,319.668 789.753,318.225 793.346,315.374C796.766,312.684 798.908,308.547 799.722,303.048L811.482,303.048L811.482,322.689L807.321,322.689L807.321,315.126L804.842,317.872C804.098,318.714 803.213,319.624 802.008,320.704C800.61,321.917 798.908,323.016 796.907,323.99C794.924,324.99 792.533,325.858 789.61,326.619C786.689,327.346 783.378,327.709 779.727,327.709C768.075,327.709 759.344,324.176 753.801,317.188C748.188,310.131 745.353,300.319 745.353,288.021C745.353,280.343 746.362,273.259 748.363,266.973C750.296,260.863 754.191,255.648 759.964,251.468C761.682,250.175 763.525,249.175 765.402,248.475C767.348,247.74 769.244,247.156 771.014,246.757C772.981,246.341 774.609,246.093 776.097,245.996C777.727,245.898 779.074,245.81 780.171,245.81C785.697,245.81 790.406,246.598 794.18,248.139C797.951,249.671 800.945,251.61 803.283,254.089C805.621,256.568 807.426,259.376 808.684,262.439C809.994,265.627 810.916,268.851 811.448,272.03C811.997,275.332 812.261,278.503 812.261,281.443L812.261,287.862L812.26,287.862Z" style="fill:rgb(26,35,105);fill-rule:nonzero;"/>
                <path d="M797.331,263.404C795.968,260.775 793.879,258.49 791.134,256.577C788.299,254.638 784.633,253.7 779.886,253.7C777.408,253.7 774.822,254.125 772.219,254.966C769.562,255.843 767.206,257.259 765.01,259.27C762.867,261.253 761.061,263.866 759.662,267.009C758.281,270.162 757.519,274.103 757.394,278.707L757.36,280.151L800.342,280.151L800.342,278.734C800.342,276.794 800.183,274.404 799.88,271.65C799.563,268.833 798.695,266.07 797.331,263.404ZM760.281,277.325C760.495,273.721 761.168,270.64 762.265,268.151C763.505,265.361 765.064,263.069 766.922,261.341C768.818,259.615 770.837,258.402 773.104,257.649C775.406,256.906 777.708,256.524 779.885,256.524C783.978,256.524 787.218,257.33 789.521,258.915C791.912,260.57 793.665,262.466 794.817,264.697C796.056,267.088 796.782,269.461 797.066,271.959C797.296,273.969 797.438,275.767 797.49,277.325L760.281,277.325Z" style="fill:rgb(26,35,105);fill-rule:nonzero;"/>
                <path d="M362.815,244.287C361.133,244.287 359.203,244.447 356.936,244.765C355.183,245.014 353.34,245.466 351.446,246.12C349.444,246.82 347.566,247.802 345.725,249.104C343.884,250.379 342.184,252.071 340.678,254.125C340.429,254.47 340.199,254.833 339.97,255.196L339.776,245.101L322.277,245.101L322.384,246.624C322.595,249.244 322.773,251.955 322.915,254.664C323.074,257.135 323.145,259.791 323.145,262.793L323.145,328.106L340.555,328.106L340.555,284.036C340.555,280.84 340.856,277.714 341.457,274.747C342.024,271.993 343.034,269.558 344.433,267.513C345.832,265.538 347.744,264.015 350.278,262.882C352.438,261.889 355.27,261.323 358.688,261.199L358.688,265.733L369.669,265.733L369.669,244.517L368.324,244.446C365.916,244.34 364.48,244.287 362.815,244.287ZM366.836,262.909L361.541,262.909L361.541,258.341L360.106,258.349C355.555,258.358 351.96,258.996 349.109,260.298C346.115,261.653 343.83,263.486 342.112,265.895C340.482,268.268 339.314,271.047 338.678,274.174C338.022,277.335 337.703,280.656 337.703,284.038L337.703,325.284L325.979,325.284L325.979,262.795C325.979,259.74 325.908,257.022 325.731,254.489C325.607,252.292 325.482,250.088 325.323,247.927L336.993,247.927L337.26,262.015L340.058,262.334C340.696,259.784 341.687,257.588 342.98,255.79C344.29,254.001 345.762,252.522 347.336,251.424C348.983,250.264 350.63,249.405 352.385,248.803C354.085,248.2 355.748,247.802 357.325,247.581C359.468,247.262 361.274,247.112 362.815,247.112C364.108,247.112 365.241,247.147 366.836,247.218L366.836,262.909Z" style="fill:rgb(26,35,105);fill-rule:nonzero;"/>
                <path d="M546.186,245.093L518.613,272.172L518.524,210.586L518.524,209.169L501.416,209.169L501.416,288.802L493.234,296.781L501.416,307.15L501.416,328.109L518.524,328.109L518.524,293.275L521.604,290.354L549.923,328.11L568.323,328.11L568.323,317.564L561.823,317.564L533.081,279.169L568.412,245.14L546.186,245.093ZM560.407,320.388L565.47,320.388L565.47,325.284L551.321,325.284L521.959,286.111L515.688,292.069L515.688,325.284L504.248,325.284L504.248,306.166L497.04,297.037L504.248,289.997L504.248,212.001L515.688,212.001L515.794,278.91L547.335,247.926L561.398,247.944L529.307,278.865L560.407,320.388Z" style="fill:rgb(26,35,105);fill-rule:nonzero;"/>
                <path d="M438.438,228.729L431.407,209.805L417.505,214.976L424.519,233.891L438.438,228.729ZM429.725,213.445L434.807,227.064L426.201,230.252L421.136,216.642L429.725,213.445Z" style="fill:rgb(26,35,105);fill-rule:nonzero;"/>
            </g>
        </g>
    </g>
</svg>
