<?xml version="1.0" encoding="UTF-8" standalone="no"?>
<!DOCTYPE svg PUBLIC "-//W3C//DTD SVG 1.1//EN" "http://www.w3.org/Graphics/SVG/1.1/DTD/svg11.dtd">
<svg width="100%" height="100%" viewBox="0 0 512 512" version="1.1" xmlns="http://www.w3.org/2000/svg" xmlns:xlink="http://www.w3.org/1999/xlink" xml:space="preserve" xmlns:serif="http://www.serif.com/" style="fill-rule: evenodd; clip-rule: evenodd; stroke-linejoin: round;stroke-miterlimit: 2;">
  <g id="XMLID_138_" transform="matrix(1,0,0,1,-0.1,-76.5)">
    <path id="XMLID_142_" d="M378.7,247.7C375.4,239.2 371,232 363.8,224.8C356.6,217.6 349.4,213.2 340.9,209.9C332.7,206.7 323.2,204.5 309.5,203.9C295.7,203.3 291.3,203.1 256.1,203.1C220.9,203.1 216.5,203.2 202.7,203.9C188.9,204.5 179.5,206.7 171.3,209.9C162.8,213.2 155.6,217.6 148.4,224.8C141.2,232 136.8,239.2 133.5,247.7C130.3,255.9 128.1,265.4 127.5,279.1C126.9,292.9 126.7,297.3 126.7,332.5C126.7,367.7 126.8,372.1 127.5,385.9C128.1,399.7 130.3,409.1 133.5,417.3C136.8,425.8 141.2,433 148.4,440.2C155.6,447.4 162.8,451.8 171.3,455.1C179.5,458.3 189,460.5 202.7,461.1C216.5,461.7 220.9,461.9 256.1,461.9C291.3,461.9 295.7,461.8 309.5,461.1C323.3,460.5 332.7,458.3 340.9,455.1C349.4,451.8 356.6,447.4 363.8,440.2C371,433 375.4,425.8 378.7,417.3C381.9,409.1 384.1,399.6 384.7,385.9C385.3,372.1 385.5,367.7 385.5,332.5C385.5,297.3 385.4,292.9 384.7,279.1C384.1,265.3 381.9,255.9 378.7,247.7ZM361.4,384.8C360.8,397.4 358.7,404.3 356.9,408.8C354.6,414.8 351.7,419.2 347.2,423.7C342.7,428.2 338.4,431 332.3,433.4C327.7,435.2 320.9,437.3 308.3,437.9C294.6,438.5 290.6,438.7 256,438.7C221.4,438.7 217.3,438.6 203.7,437.9C191.1,437.3 184.2,435.2 179.7,433.4C173.7,431.1 169.3,428.2 164.8,423.7C160.3,419.2 157.5,414.9 155.1,408.8C153.3,404.2 151.2,397.4 150.6,384.8C150,371.1 149.8,367 149.8,332.5C149.8,298 149.9,293.8 150.6,280.2C151.2,267.6 153.3,260.7 155.1,256.2C157.4,250.2 160.3,245.8 164.8,241.3C169.3,236.8 173.6,234 179.7,231.6C184.3,229.8 191.1,227.7 203.7,227.1C217.4,226.5 221.5,226.3 256,226.3C290.5,226.3 294.7,226.4 308.3,227.1C320.9,227.7 327.8,229.8 332.3,231.6C338.3,233.9 342.7,236.8 347.2,241.3C351.7,245.8 354.5,250.1 356.9,256.2C358.7,260.8 360.8,267.6 361.4,280.2C362,293.9 362.2,298 362.2,332.5C362.2,367 362,371.2 361.4,384.8Z" style="fill-rule:nonzero;" fill="#fff"/>
    <path id="XMLID_145_" d="M256,266C219.3,266 189.5,295.8 189.5,332.5C189.5,369.2 219.3,399 256,399C292.7,399 322.5,369.2 322.5,332.5C322.5,295.8 292.7,266 256,266ZM256,375.7C232.2,375.7 212.8,356.4 212.8,332.5C212.8,308.7 232.1,289.3 256,289.3C279.9,289.3 299.2,308.6 299.2,332.5C299.2,356.3 279.8,375.7 256,375.7Z" style="fill-rule:nonzero;" fill="#fff"/>
    <circle id="XMLID_143_" cx="325.1" cy="263.4" r="15.5" fill="#fff"/>
  </g>
</svg>
